<svg xmlns="http://www.w3.org/2000/svg" viewBox="0 0 64 64" fill="none">
  <defs>
    <linearGradient id="bg" x1="0" y1="0" x2="0" y2="1">
      <stop offset="0%" stop-color="#8b75ff"/>
      <stop offset="100%" stop-color="#4f35bf"/>
    </linearGradient>
    <filter id="shadow" x="-20%" y="-20%" width="140%" height="140%">
      <feGaussianBlur in="SourceAlpha" stdDeviation="0.8"/>
      <feOffset dy="0.8"/>
      <feComponentTransfer><feFuncA type="linear" slope="0.35"/></feComponentTransfer>
      <feMerge><feMergeNode/><feMergeNode in="SourceGraphic"/></feMerge>
    </filter>
  </defs>

  <rect width="64" height="64" rx="14" fill="url(#bg)"/>

  <circle cx="32" cy="32" r="19" fill="#ffffff" filter="url(#shadow)"/>
  <circle cx="32" cy="32" r="19" stroke="#3d2599" stroke-width="0.6" stroke-opacity="0.25"/>

  <g fill="#9b8aff" opacity="0.55">
    <circle cx="32" cy="18.5" r="0.7"/>
    <circle cx="38.75" cy="20.3" r="0.7"/>
    <circle cx="43.7" cy="25.25" r="0.7"/>
    <circle cx="45.5" cy="32" r="0.7"/>
    <circle cx="43.7" cy="38.75" r="0.7"/>
    <circle cx="38.75" cy="43.7" r="0.7"/>
    <circle cx="32" cy="45.5" r="0.7"/>
    <circle cx="25.25" cy="43.7" r="0.7"/>
    <circle cx="20.3" cy="38.75" r="0.7"/>
    <circle cx="18.5" cy="32" r="0.7"/>
    <circle cx="20.3" cy="25.25" r="0.7"/>
    <circle cx="25.25" cy="20.3" r="0.7"/>
  </g>

  <rect x="31.1" y="16" width="1.8" height="3.5" rx="0.9" fill="#4f35bf"/>
  <rect x="44.5" y="31.1" width="3.5" height="1.8" rx="0.9" fill="#4f35bf"/>
  <rect x="31.1" y="44.5" width="1.8" height="3.5" rx="0.9" fill="#4f35bf"/>
  <rect x="16" y="31.1" width="3.5" height="1.8" rx="0.9" fill="#4f35bf"/>

  <path d="M32 32 L24 24.5" stroke="#1f1247" stroke-width="2.6" stroke-linecap="round"/>
  <path d="M32 32 L40.5 28" stroke="#1f1247" stroke-width="2.6" stroke-linecap="round"/>

  <circle cx="32" cy="32" r="2.4" fill="#1f1247"/>
  <circle cx="32" cy="32" r="0.9" fill="#8b75ff"/>
</svg>
